<svg data-v-6805eed4="" version="1.0"
    xmlns="http://www.w3.org/2000/svg"
    xmlns:xlink="http://www.w3.org/1999/xlink" width="100%" height="100%" viewBox="0 0 340.000000 250.000000" preserveAspectRatio="xMidYMid meet" color-interpolation-filters="sRGB" style="margin: auto;">
    <rect data-v-6805eed4="" x="0" y="0" width="100%" height="100%" fill="#1d0a5b" fill-opacity="0" class="background"></rect>    <!---->
    <g data-v-6805eed4="" fill="#fff" class="basesvg" transform="translate(52.40460205078125,88.33940124511719)">
        <g data-gra="path-name" fill-rule="" class="tp-name">
            <g transform="scale(1.2400000000000002)">
                <g>
                    <path d="M51.74 19.49C59.1 19.33 61.17 15.79 61.17 13.28 61.17 11.89 60.53 10.82 59.81 10.82 59.66 10.82 59.5 10.86 59.34 10.98 54.92 14 50.67 15.39 45.82 15.39 39.73 15.39 32.77 13.16 23.42 9.03 28.83 5.17 35.36-6.01 35.36-15.31 35.36-22.59 33.92-37.5 20.24-37.5 7.56-37.5-5.69-24.98-5.69-11.89-5.69-4.53-1.67 0.12 5.81 0.12L5.81 0.4C5.81 5.65 8.15 12.61 14.44 12.61 17.54 12.61 20.2 11.65 22.51 9.78 37.5 17.02 42.12 19.49 51.74 19.49ZM14.04 10.62C8.87 10.62 7.79 3.94 7.79 0 12.41-0.87 16.7-1.39 21.4-9.39 21.83-10.14 22.19-10.94 22.55-11.77 22.63-11.93 22.67-11.93 22.67-12.13 22.67-12.57 21.91-12.69 21.6-12.69 21-12.69 20.84-12.69 20.56-12.17 20.12-11.33 19.85-10.46 19.33-9.66 16.66-5.57 13.12-1.71 7.91-1.23 8.47-5.49 11.77-9.74 15.83-11.06 16.19-11.18 16.58-11.25 16.98-11.25 17.14-11.25 17.54-11.18 17.9-11.18 18.21-11.18 18.49-11.25 18.49-11.53 18.45-11.97 17.58-12.01 17.06-12.01 10.26-12.01 6.28-7.91 5.77-1.19 2.27-1.19-3.14-2.43-3.14-11.69-3.14-22.47 6.96-36.55 20.12-36.55 28.63-36.51 29.95-22.23 29.95-15.31 29.95-6.72 26.81 1.51 20.96 7.72 20.12 7.56 17.26 5.73 16.82 1.79 16.78 1.55 16.35 1.47 16.11 1.47 12.85 1.47 11.41 2.15 11.41 3.14 11.41 4.69 14.68 6.92 19.77 8.71 18.02 9.9 16.35 10.62 14.04 10.62ZM46.21 2.03C50.67 2.03 55.36-3.98 57.43-6.05 57.51-6.12 57.67-6.28 57.67-6.44 57.67-6.84 57.15-6.92 56.83-6.92 56.83-6.4 50.75 0.2 47.96 0.2 47.25 0.2 46.61-0.36 46.61-1.27 46.61-2.74 47.76-5.13 47.84-6.56 47.84-7.72 47.41-8.07 46.37-8.07 45.18-8.07 43.63-7.44 43.11-7.32L43.27-7.64C44.26-9.35 45.58-11.53 45.58-13.56 45.58-14.99 44.58-15.63 43.23-15.63 40.13-15.63 38.14-11.06 38.14-8.35 38.14-6.52 39.17-5.33 40.72-5.33L41.24-5.37C42-5.49 43.51-6.64 44.18-6.72 44.5-6.72 44.54-6.24 44.54-6.24 44.54-4.85 43.87-4.06 43.35-0.99 43.31-0.76 43.31-0.52 43.31-0.32 43.31 1.79 45.18 2.03 46.21 2.03ZM41.84-7.28C41.6-7.28 41.48-7.56 41.48-7.99 41.48-9.74 43.15-13.96 43.67-13.96 43.75-13.96 43.79-13.88 43.79-13.72 43.79-12.89 42.75-9.9 41.84-7.28ZM58.5-8.91C59.14-8.91 59.89-9.27 60.25-9.78 60.33-9.9 60.37-10.1 60.37-10.3 60.37-10.94 60.01-11.77 58.82-11.77 58.06-11.77 57.31-10.94 57.27-10.54L57.23-10.18C57.23-9.31 57.83-8.91 58.5-8.91ZM59.22-1.27C62.92-1.27 67.77-4.33 68.68-6.56L68.72-6.6C68.68-7.04 68.17-7.08 67.85-7.08 67.37-7 67.05-6.44 66.85-6.12 65.26-3.78 62.32-2.07 59.46-2.07 58.54-2.11 58.22-2.59 58.22-3.26 58.22-4.37 59.1-5.97 59.42-6.44 59.46-6.48 59.46-6.56 59.46-6.6 59.46-7 58.62-7.6 57.31-7.6 55.68-7.6 55.52-6.24 55.52-4.77 55.52-2.19 56.91-1.27 59.22-1.27ZM71.43-0.4C73.26-0.4 74.29-1.59 75.29-2.98 78.19-2.98 81.61-5.81 81.61-6.56 81.61-6.88 81.37-7 81.09-7 80.89-7 80.65-6.92 80.57-6.8 79.5-5.25 77.67-3.82 75.68-3.82 76-4.61 76.2-5.53 76.2-6.48 76.2-8.91 75.09-11.37 72.5-11.37 71.23-11.37 66.58-11.37 66.58-6.44 66.62-4.45 67.17-3.9 68.84-3.18 68.76-2.98 68.76-2.78 68.76-2.59 68.76-1.35 69.96-0.4 71.43-0.4ZM73.42-3.94C71.07-3.94 70.27-5.09 70.27-6.44 70.27-8.27 71.79-10.46 72.94-10.46 74.21-10.46 74.61-9.51 74.61-8.31 74.61-6.68 73.81-4.57 73.42-3.94ZM71.31-1.55C70.71-1.55 70.35-1.95 70.35-2.31 70.35-2.51 70.39-2.7 70.51-2.94 70.95-2.82 71.43-2.78 71.98-2.78L72.94-2.82C72.5-1.91 71.86-1.55 71.31-1.55ZM89.36 2.51C93.5 2.51 97.52-2.23 97.52-6.24 97.52-6.6 97.16-6.72 96.84-6.72 96.36-6.72 96.48-6.4 96.36-5.93 94.77 0 92.11 0.87 91.03 0.87 89.8 0.87 89.44-0.44 89.44-2.07 89.44-4.77 90.48-8.43 90.48-8.71 90.48-9.58 89.92-9.98 89.28-9.98 88.53-9.98 87.61-9.47 87.3-8.67 86.26-6.08 85.51-1.43 83.32-1.43 82.96-1.43 82.84-1.83 82.84-2.39 82.84-3.86 83.68-6.56 83.68-7.32 83.68-7.91 82.44-7.91 81.97-7.91 79.9-7.91 79.62-5.25 79.62-3.9 79.62-1.59 80.57-0.4 83.2-0.4 85.7-0.4 86.54-4.49 86.98-4.69 86.78-3.86 86.54-2.51 86.54-1.23 86.54 0.68 87.1 2.51 89.36 2.51ZM99.74 3.34C101.81 3.34 105.55 2.39 105.55-0.24 105.55-0.84 105.23-1.43 104.71-1.79 105.87-2.47 110.16-4.26 110.56-5.41 110.64-5.69 110.68-5.89 110.68-6.08 110.68-6.72 110.32-6.96 110-6.96 109.81-6.96 109.69-6.88 109.61-6.76 109.05-5.69 106.94-3.58 103.6-2.7 101.41-4.02 99.78-6.6 99.78-7.79 99.78-8.83 100.34-8.99 101.14-9.03 100.94-8.71 100.78-8.35 100.78-7.99 100.78-7.36 101.49-7.28 101.97-7.28 102.37-7.28 102.69-7.44 102.69-7.87 102.69-9.11 100.98-10.1 99.9-10.1 98.43-10.1 96.12-9.27 96.12-7.52 96.16-4.22 100.42-3.06 101.89-2.03 100.58-1.51 97.44-0.24 97.44 1.55 97.44 2.98 98.51 3.34 99.74 3.34ZM100.34 2.39C100.02 2.39 99.66 2.31 99.66 2.03 99.66 1.31 102.49-0.56 103.2-0.8 103.4-0.6 103.48-0.36 103.48-0.12 103.48 0.99 101.53 2.39 100.34 2.39ZM141.78 21.63C141.9 21.63 142.42 21.56 142.42 21.4 142.38 21.04 141.86 20.64 141.7 20.36 140.43 18.45 139.95 14.91 139.95 11.25 139.95 7.12 140.55 2.78 141.34 0.32 142.62-0.95 146.24-2.11 146.24-3.78 146.24-4.37 146-4.57 145.6-4.57 145.52-4.57 145.4-4.57 145.28-4.53 144.56-4.37 142.3-2.47 141.62-1.95 142.42-5.65 144.37-8.95 144.37-10.78 144.33-12.01 143.93-12.49 143.41-12.49 142.5-12.49 141.03-11.14 139.2-9.94 136.49-8.15 128.66-4.18 125.51-4.18 125.44-4.65 125.24-4.89 124.72-4.89 124.4-4.89 123.84-4.73 123.84-4.3L123.84-4.22C123.92-3.5 125.51-3.38 126.03-3.38 130.25-3.38 137.49-7.32 141.14-9.51 139-5.65 138.52-2.55 137.64 0.36 136.57 1.35 135.5 1.95 134.7 2.43 130.17 4.97 124.32 7.91 118.91 7.91 115.61 7.91 114.78 4.53 114.54 2.27 114.5 1.79 114.46 1.27 114.46 0.76 114.46-12.81 132.12-34 142.62-34 143.33-34 143.53-33.21 143.57-32.65 143.61-32.13 143.65-31.62 143.65-31.06 143.65-25.65 141.14-18.02 138.24-15.11 138.16-15.03 138.12-14.95 138.12-14.83 138.12-14.16 140.07-13.28 140.99-13.28 141.42-13.28 141.66-13.36 141.9-13.68 142.97-15.11 145.88-23.07 145.88-28.83 145.88-32.33 144.8-35.04 141.66-35.04 129.33-35.04 108.21-11.97 108.21 2.07L108.29 3.42C108.85 8.39 113.94 9.82 118.04 9.82 125.4 9.82 131.36 6.12 137.29 2.74 136.85 4.3 136.61 6.4 136.61 8.67 136.61 14.68 138.24 21.63 141.78 21.63ZM157.09 2.51C161.23 2.51 165.25-2.23 165.25-6.24 165.25-6.6 164.89-6.72 164.57-6.72 164.09-6.72 164.21-6.4 164.09-5.93 162.5 0 159.84 0.87 158.76 0.87 157.53 0.87 157.17-0.44 157.17-2.07 157.17-4.77 158.21-8.43 158.21-8.71 158.21-9.58 157.65-9.98 157.01-9.98 156.26-9.98 155.34-9.47 155.02-8.67 153.99-6.08 153.23-1.43 151.05-1.43 150.69-1.43 150.57-1.83 150.57-2.39 150.57-3.86 151.41-6.56 151.41-7.32 151.41-7.91 150.17-7.91 149.7-7.91 147.63-7.91 147.35-5.25 147.35-3.9 147.35-1.59 148.3-0.4 150.93-0.4 153.43-0.4 154.27-4.49 154.71-4.69 154.51-3.86 154.27-2.51 154.27-1.23 154.27 0.68 154.83 2.51 157.09 2.51ZM171.01 11.53C171.57 11.53 172.13 11.49 172.56 11.14 175.27 8.99 176.54 3.26 177.14-0.87 178.89-2.82 180.84-4.61 183.14-5.81 183.3-5.89 183.98-6.16 183.98-6.36 183.98-6.72 183.42-6.84 183.14-6.84 181.67-6.84 178.57-4.3 177.26-3.3 177.45-4.18 177.65-5.29 177.65-6.36 177.65-8.03 177.1-9.58 175.07-9.58 173.8-9.58 173.08-8.23 172.76-7.79 171.65-6.12 170.81-1.19 168.55-1.19 168.11-1.19 167.95-1.47 167.95-1.95 167.95-2.94 168.67-4.77 168.67-6.24 168.67-7.2 168.35-8.03 167.27-8.35 167.11-8.39 166.92-8.43 166.68-8.43 165.44-8.43 163.77-7.56 163.73-5.93 163.73-4.65 164.05 0.56 167.47 0.56 171.73 0.56 172.24-5.65 173.56-5.73 174.03-5.73 174.75-3.78 174.75-2.03 174.75-1.63 174.71-1.27 174.63-0.91 173.2 0.87 169.54 4.26 169.54 9.66 169.54 10.58 169.94 11.53 171.01 11.53ZM171.41 10.06C171.37 9.66 171.33 9.31 171.33 8.95 171.33 5.69 173.24 3.02 174.39 1.91 174.07 3.78 172.56 8.55 171.41 10.06Z" transform="translate(5.690000057220459, 37.5)"></path>
                </g>                <!---->                <!---->                <!---->                <!---->                <!---->                <!---->                <!----></g>
        </g>        <!----></g>
    <defs v-gra="od"></defs>
</svg>